<svg width="22" height="24" viewBox="0 0 22 24" fill="none" xmlns="http://www.w3.org/2000/svg">
<path d="M1 10C1 5.029 5.47 1 11 1C16.379 1 21 5.029 21 10C21 14.971 14.712 23 11 23C7.212 23 1 14.971 1 10Z" stroke="#F6F6F6" stroke-width="2" stroke-linecap="round" stroke-linejoin="round"/>
<path d="M4 9.00001C5.61255 8.97473 7.1774 9.54716 8.393 10.607C9.705 11.92 9 15 9 15C7.72665 14.8249 6.5323 14.2813 5.564 13.436C4.022 11.894 4 9.00001 4 9.00001Z" fill="#F6F6F6"/>
<path d="M18 9.00001C16.3876 8.97468 14.8229 9.54754 13.608 10.608C12.3 11.92 13 15 13 15C14.2733 14.8249 15.4677 14.2813 16.436 13.436C17.978 11.894 18 9.00001 18 9.00001Z" fill="#F6F6F6"/>
</svg>
