<svg width="24" height="22" viewBox="0 0 24 22" fill="none" xmlns="http://www.w3.org/2000/svg">
<path d="M1 6L12 1L23 6" stroke="#F6F6F6" stroke-width="2" stroke-linecap="round" stroke-linejoin="round"/>
<path d="M10 19.836C10 19.232 9.735 18.657 9.262 18.282C8.539 17.708 7.285 17 5.5 17C3.715 17 2.461 17.708 1.738 18.282C1.265 18.657 1 19.232 1 19.836V21H10V19.836Z" stroke="#F6F6F6" stroke-width="2" stroke-linecap="round" stroke-linejoin="round"/>
<path d="M5.5 14C6.88071 14 8 12.8807 8 11.5C8 10.1193 6.88071 9 5.5 9C4.11929 9 3 10.1193 3 11.5C3 12.8807 4.11929 14 5.5 14Z" stroke="#F6F6F6" stroke-width="2" stroke-linecap="round" stroke-linejoin="round"/>
<path d="M23 19.836C23 19.232 22.735 18.657 22.262 18.282C21.539 17.708 20.285 17 18.5 17C16.715 17 15.461 17.708 14.738 18.282C14.265 18.657 14 19.232 14 19.836V21H23V19.836Z" stroke="#F6F6F6" stroke-width="2" stroke-linecap="round" stroke-linejoin="round"/>
<path d="M18.5 14C19.8807 14 21 12.8807 21 11.5C21 10.1193 19.8807 9 18.5 9C17.1193 9 16 10.1193 16 11.5C16 12.8807 17.1193 14 18.5 14Z" stroke="#F6F6F6" stroke-width="2" stroke-linecap="round" stroke-linejoin="round"/>
</svg>
