<svg width="40" height="40" viewBox="0 0 40 40" fill="none" xmlns="http://www.w3.org/2000/svg">
<rect width="40" height="40" rx="20" fill="#F8F8F8"/>
<path d="M14.206 10.632C13.4045 10.5431 12.5955 10.5431 11.794 10.632C11.5009 10.6648 11.2275 10.7956 11.018 11.0033C10.8085 11.2109 10.6753 11.4832 10.64 11.776C10.5449 12.5892 10.5449 13.4108 10.64 14.224C10.71 14.83 11.196 15.301 11.794 15.368C12.589 15.458 13.411 15.458 14.206 15.368C14.4991 15.3352 14.7725 15.2044 14.982 14.9967C15.1915 14.7891 15.3247 14.5168 15.36 14.224C15.455 13.411 15.455 12.589 15.36 11.776C15.3247 11.4832 15.1915 11.2109 14.982 11.0033C14.7725 10.7956 14.4991 10.6648 14.206 10.632Z" fill="#373B53"/>
<path d="M21.206 10.632C20.4045 10.5431 19.5955 10.5431 18.794 10.632C18.5009 10.6648 18.2275 10.7956 18.018 11.0033C17.8085 11.2109 17.6753 11.4832 17.64 11.776C17.5449 12.5892 17.5449 13.4108 17.64 14.224C17.71 14.83 18.196 15.301 18.794 15.368C19.589 15.458 20.411 15.458 21.206 15.368C21.4991 15.3352 21.7725 15.2044 21.982 14.9967C22.1915 14.7891 22.3247 14.5168 22.36 14.224C22.455 13.411 22.455 12.589 22.36 11.776C22.3247 11.4832 22.1915 11.2109 21.982 11.0033C21.7725 10.7956 21.4991 10.6648 21.206 10.632Z" fill="#373B53"/>
<path d="M28.206 10.632C27.4045 10.5431 26.5955 10.5431 25.794 10.632C25.5009 10.6648 25.2275 10.7956 25.018 11.0033C24.8085 11.2109 24.6753 11.4832 24.64 11.776C24.5448 12.5892 24.5448 13.4108 24.64 14.224C24.71 14.83 25.196 15.301 25.794 15.368C26.589 15.458 27.411 15.458 28.206 15.368C28.4991 15.3352 28.7725 15.2044 28.982 14.9967C29.1915 14.7891 29.3247 14.5168 29.36 14.224C29.455 13.411 29.455 12.589 29.36 11.776C29.3247 11.4832 29.1915 11.2109 28.982 11.0033C28.7725 10.7956 28.4991 10.6648 28.206 10.632Z" fill="#373B53"/>
<path d="M14.206 17.632C13.4045 17.5431 12.5955 17.5431 11.794 17.632C11.5009 17.6648 11.2275 17.7956 11.018 18.0033C10.8085 18.2109 10.6753 18.4832 10.64 18.776C10.5449 19.5892 10.5449 20.4108 10.64 21.224C10.71 21.83 11.196 22.301 11.794 22.368C12.589 22.458 13.411 22.458 14.206 22.368C14.4991 22.3352 14.7725 22.2044 14.982 21.9967C15.1915 21.7891 15.3247 21.5168 15.36 21.224C15.455 20.411 15.455 19.589 15.36 18.776C15.3247 18.4832 15.1915 18.2109 14.982 18.0033C14.7725 17.7956 14.4991 17.6648 14.206 17.632Z" fill="#373B53"/>
<path d="M21.206 17.632C20.4045 17.5431 19.5955 17.5431 18.794 17.632C18.5009 17.6648 18.2275 17.7956 18.018 18.0033C17.8085 18.2109 17.6753 18.4832 17.64 18.776C17.5449 19.5892 17.5449 20.4108 17.64 21.224C17.71 21.83 18.196 22.301 18.794 22.368C19.589 22.458 20.411 22.458 21.206 22.368C21.4991 22.3352 21.7725 22.2044 21.982 21.9967C22.1915 21.7891 22.3247 21.5168 22.36 21.224C22.4551 20.4108 22.4551 19.5892 22.36 18.776C22.3247 18.4832 22.1915 18.2109 21.982 18.0033C21.7725 17.7956 21.4991 17.6648 21.206 17.632Z" fill="#373B53"/>
<path d="M28.206 17.632C27.4045 17.5431 26.5955 17.5431 25.794 17.632C25.5009 17.6648 25.2275 17.7956 25.018 18.0033C24.8085 18.2109 24.6753 18.4832 24.64 18.776C24.5448 19.5892 24.5448 20.4108 24.64 21.224C24.71 21.83 25.196 22.301 25.794 22.368C26.589 22.458 27.411 22.458 28.206 22.368C28.4991 22.3352 28.7725 22.2044 28.982 21.9967C29.1915 21.7891 29.3247 21.5168 29.36 21.224C29.4551 20.4108 29.4551 19.5892 29.36 18.776C29.3247 18.4832 29.1915 18.2109 28.982 18.0033C28.7725 17.7956 28.4991 17.6648 28.206 17.632Z" fill="#373B53"/>
<path d="M14.206 24.632C13.4045 24.543 12.5955 24.543 11.794 24.632C11.5009 24.6648 11.2275 24.7956 11.018 25.0033C10.8085 25.2109 10.6753 25.4832 10.64 25.776C10.5449 26.5892 10.5449 27.4108 10.64 28.224C10.71 28.83 11.196 29.301 11.794 29.368C12.589 29.458 13.411 29.458 14.206 29.368C14.4991 29.3352 14.7725 29.2044 14.982 28.9967C15.1915 28.7891 15.3247 28.5168 15.36 28.224C15.455 27.411 15.455 26.589 15.36 25.776C15.3247 25.4832 15.1915 25.2109 14.982 25.0033C14.7725 24.7956 14.4991 24.6648 14.206 24.632Z" fill="#373B53"/>
<path d="M21.206 24.632C20.4045 24.543 19.5955 24.543 18.794 24.632C18.5009 24.6648 18.2275 24.7956 18.018 25.0033C17.8085 25.2109 17.6753 25.4832 17.64 25.776C17.5449 26.5892 17.5449 27.4108 17.64 28.224C17.71 28.83 18.196 29.301 18.794 29.368C19.589 29.458 20.411 29.458 21.206 29.368C21.4991 29.3352 21.7725 29.2044 21.982 28.9967C22.1915 28.7891 22.3247 28.5168 22.36 28.224C22.4551 27.4108 22.4551 26.5892 22.36 25.776C22.3247 25.4832 22.1915 25.2109 21.982 25.0033C21.7725 24.7956 21.4991 24.6648 21.206 24.632Z" fill="#373B53"/>
<path d="M28.206 24.632C27.4045 24.543 26.5955 24.543 25.794 24.632C25.5009 24.6648 25.2275 24.7956 25.018 25.0033C24.8085 25.2109 24.6753 25.4832 24.64 25.776C24.5448 26.5892 24.5448 27.4108 24.64 28.224C24.71 28.83 25.196 29.301 25.794 29.368C26.589 29.458 27.411 29.458 28.206 29.368C28.4991 29.3352 28.7725 29.2044 28.982 28.9967C29.1915 28.7891 29.3247 28.5168 29.36 28.224C29.4551 27.4108 29.4551 26.5892 29.36 25.776C29.3247 25.4832 29.1915 25.2109 28.982 25.0033C28.7725 24.7956 28.4991 24.6648 28.206 24.632Z" fill="#373B53"/>
</svg>
