<svg width="23" height="23" viewBox="0 0 23 23" fill="none" xmlns="http://www.w3.org/2000/svg">
<path d="M10 13C7.176 13 4.671 13.638 3.025 14.193C1.81 14.604 1 15.749 1 17.032V21C1 21 10.958 21 11 21" stroke="#F6F6F6" stroke-width="2" stroke-linecap="round" stroke-linejoin="round"/>
<path d="M10 13C7.239 13 5 9.761 5 7V6C5 3.239 7.239 1 10 1C12.761 1 15 3.239 15 6V7C15 9.761 12.761 13 10 13Z" stroke="#F6F6F6" stroke-width="2" stroke-linecap="round" stroke-linejoin="round"/>
<path d="M21.361 15.631C20.388 14.67 18.764 14.827 18 15.964C17.235 14.826 15.611 14.671 14.639 15.631C13.787 16.473 13.787 17.838 14.639 18.679L18 22L21.361 18.679C22.213 17.838 22.213 16.473 21.361 15.631Z" stroke="#F6F6F6" stroke-width="2" stroke-linecap="round" stroke-linejoin="round"/>
</svg>
