<svg width="32" height="32" viewBox="0 0 32 32" fill="none" xmlns="http://www.w3.org/2000/svg">
<rect width="32" height="32" rx="16" fill="#3197FF" fill-opacity="0.2"/>
<path d="M16 23.3333C20.05 23.3333 23.3333 20.05 23.3333 16C23.3333 11.9499 20.05 8.66663 16 8.66663C11.9499 8.66663 8.66663 11.9499 8.66663 16C8.66663 20.05 11.9499 23.3333 16 23.3333Z" stroke="#3197FF" stroke-linecap="round" stroke-linejoin="round"/>
<path d="M16 20.6667C16.3682 20.6667 16.6667 20.3682 16.6667 20C16.6667 19.6319 16.3682 19.3334 16 19.3334C15.6319 19.3334 15.3334 19.6319 15.3334 20C15.3334 20.3682 15.6319 20.6667 16 20.6667Z" fill="#3197FF"/>
<path d="M14.5687 12.3733C15.8887 11.79 17.5967 11.8593 18.1801 12.8033C18.7634 13.7473 18.3607 14.8453 17.3607 15.6926C16.3607 16.54 16.0001 17 16.0001 17.6666" stroke="#3197FF" stroke-linecap="round" stroke-linejoin="round"/>
</svg>
